<svg width="520" height="96" viewBox="0 0 520 96" fill="none" xmlns="http://www.w3.org/2000/svg">
<path fill-rule="evenodd" clip-rule="evenodd" d="M63 54C74.5979 54 84 44.598 84 33C84 21.402 74.5979 12 63 12C51.402 12 42 21.402 42 33C42 36.2405 42.7339 39.3096 44.0447 42.0501C44.3586 42.017 44.6773 42 45 42C49.9705 42 54 46.0294 54 51C54 51.3227 53.983 51.6413 53.9499 51.9552C56.6903 53.266 59.7594 54 63 54ZM51.3592 57.3687C54.8839 59.0554 58.8316 60 63 60C77.9116 60 90 47.9117 90 33C90 18.0883 77.9116 6 63 6C48.0883 6 36 18.0883 36 33C36 37.1683 36.9445 41.116 38.6313 44.6407C37.0054 46.2691 36 48.5171 36 51C36 52.3894 36.3148 53.7053 36.8771 54.8802L35.1213 56.636C33.9497 57.8076 32.0502 57.8076 30.8786 56.636L21.3639 47.1213C17.8492 43.6066 12.1507 43.6066 8.63599 47.1213L8.12127 47.636C4.60655 51.1508 4.60655 56.8492 8.12127 60.364L23.1213 75.364C23.6839 75.9266 24 76.6896 24 77.4853V87V90H30V87V77.4853C30 75.0983 29.0517 72.8091 27.3639 71.1213L12.3639 56.1213C11.1923 54.9497 11.1923 53.0503 12.3639 51.8787L12.8786 51.364C14.0502 50.1924 15.9497 50.1924 17.1213 51.364L26.636 60.8787C30.1507 64.3934 35.8492 64.3934 39.3639 60.8787L41.1197 59.1229C42.2946 59.6851 43.6105 60 45 60C47.4828 60 49.7309 58.9946 51.3592 57.3687Z" fill="#FF6666"/>
<path fill-rule="evenodd" clip-rule="evenodd" d="M190 24L178 36H166V24L178 12L172 6C158.745 6 148 16.7452 148 30C148 33.5216 148.758 36.8661 150.121 39.879L144.815 45.1849C142.547 43.9793 139.668 44.3319 137.757 46.2426L113.243 70.7574C110.899 73.1005 110.899 76.8995 113.243 79.2426L122.757 88.7574C125.1 91.1005 128.899 91.1005 131.243 88.7574L155.757 64.2426C157.668 62.3319 158.021 59.4529 156.815 57.1849L162.121 51.879C165.134 53.2415 168.478 54 172 54C185.255 54 196 43.2548 196 30L190 24Z" fill="#FFBC57"/>
<path fill-rule="evenodd" clip-rule="evenodd" d="M218 34.7574C218 37.4301 221.231 38.7686 223.121 36.8787L230 30L242 42L254 30L242 18L248.879 11.1213C250.769 9.23143 249.43 6 246.757 6L218 6L218 34.7574ZM302 61.2426C302 58.5699 298.769 57.2314 296.879 59.1213L290 66L278 54L266 66L278 78L271.121 84.8787C269.231 86.7686 270.57 90 273.243 90H302V61.2426ZM271.121 11.1213C269.231 9.23143 270.57 6 273.243 6L302 6L302 34.7574C302 37.4301 298.769 38.7686 296.879 36.8787L290 30L278 42L266 30L278 18L271.121 11.1213ZM246.757 90C249.43 90 250.769 86.7686 248.879 84.8787L242 78L254 66L242 54L230 66L223.121 59.1213C221.231 57.2314 218 58.5699 218 61.2426L218 90L246.757 90Z" fill="#26D964"/>
<path fill-rule="evenodd" clip-rule="evenodd" d="M387.728 6H408V26.2721C408 28.659 407.052 30.9482 405.364 32.636L374.636 63.364C372.948 65.0518 370.659 66 368.272 66H360L348 54V45.7279C348 43.341 348.948 41.0518 350.636 39.364L381.364 8.63604C383.052 6.94821 385.341 6 387.728 6ZM390 33C390 37.9706 385.971 42 381 42C376.029 42 372 37.9706 372 33C372 28.0294 376.029 24 381 24C385.971 24 390 28.0294 390 33ZM357.515 24H345.728C343.341 24 341.052 24.9482 339.364 26.636L324 42H342.471C343.133 39.4189 344.477 37.0376 346.393 35.1213L357.515 24ZM372 71.5294V90L387.364 74.636C389.052 72.9482 390 70.659 390 68.2721V56.4853L378.879 67.6066C376.962 69.5228 374.581 70.8671 372 71.5294ZM330 72C330 65.3726 335.373 60 342 60C348.627 60 354 65.3726 354 72C354 78.6274 348.627 84 342 84H330V72Z" fill="#4CBCFF"/>
<path fill-rule="evenodd" clip-rule="evenodd" d="M491.243 13.2427L512.243 34.2426C513.368 35.3679 514 36.894 514 38.4853V57.5147C514 59.106 513.368 60.6321 512.243 61.7574L497.243 76.7574C494.899 79.1005 491.101 79.1005 488.757 76.7574L467.757 55.7574C466.632 54.6322 466 53.106 466 51.5147V32.4853C466 30.894 466.632 29.3679 467.757 28.2427L482.757 13.2426C485.101 10.8995 488.899 10.8995 491.243 13.2427ZM477.121 30.8787L475 28.7574L470.757 33L472.879 35.1213L490 52.2427V69V72H496V69V52.2427L507.121 41.1213L509.243 39L505 34.7574L502.879 36.8787L493 46.7574L477.121 30.8787Z" fill="#E066FF"/>
<path opacity="0.5" fill-rule="evenodd" clip-rule="evenodd" d="M436 30H460V36H436V30ZM424 42H460V48H424V42ZM460 54H430V60H460V54Z" fill="#E066FF"/>
</svg>
